<svg xmlns="http://www.w3.org/2000/svg" version="1.1" xmlns:xlink="http://www.w3.org/1999/xlink" width="512" height="512" x="0" y="0" viewBox="0 0 682.665 682.667" style="enable-background:new 0 0 512 512" xml:space="preserve" class=""><g><defs><clipPath id="a" clipPathUnits="userSpaceOnUse"><path d="M0 512h511.999V0H0Z" fill="#000000" opacity="1" data-original="#000000"></path></clipPath></defs><g clip-path="url(#a)" transform="matrix(1.33333 0 0 -1.33333 0 682.667)"><path d="m0 0-33 15.5-7.385-2.239-96.784-88.436c-21.432-19.582-54.261-19.582-75.692 0L-353.224 53.079a20.836 20.836 0 0 1-.717-5.344v-247.47c0-11.525 9.342-20.866 20.866-20.866h316.12c11.523 0 20.865 9.341 20.865 20.866V-4.721z" style="fill-opacity:1;fill-rule:nonzero;stroke:none" transform="translate(435.166 303.725)" fill="#f4ddb1" data-original="#f4ddb1"></path><path d="M0 0v203.302l-55.661 50.858a20.836 20.836 0 0 1-.716-5.344V1.346c0-11.525 9.341-20.866 20.865-20.866h49.429C5.843-16.697 0-9.007 0 0" style="fill-opacity:1;fill-rule:nonzero;stroke:none" transform="translate(137.602 102.644)" fill="#f1d59d" data-original="#f1d59d"></path><path d="m0 0-14.243 5.583H-77.91L-87.017 0l-135.417-123.735c0-11.525 9.342-20.867 20.866-20.867h316.12c11.523 0 20.865 9.342 20.865 20.867z" style="fill-opacity:1;fill-rule:nonzero;stroke:none" transform="translate(303.66 227.725)" fill="#f6e4c1" data-original="#f6e4c1"></path><path d="M0 0v52.86L-56.377 1.346c0-11.525 9.341-20.867 20.865-20.867h49.43C5.843-16.697 0-9.007 0 0" style="fill-opacity:1;fill-rule:nonzero;stroke:none" transform="translate(137.602 102.644)" fill="#f4ddb1" data-original="#f4ddb1"></path><path d="m0 0-3.849 3.351h-273.143c-11.524 0-20.866-9.342-20.866-20.867l141.08-128.909c21.431-19.582 54.26-19.582 75.692 0L19.008-54.966 21.333-52Z" style="fill-opacity:1;fill-rule:nonzero;stroke:none" transform="translate(379.083 368.975)" fill="#f9efda" data-original="#f9efda" class=""></path><path d="M0 0c0 9.008 5.843 16.697 13.918 19.521h-49.43c-11.524 0-20.865-9.342-20.865-20.867L0-52.859Z" style="fill-opacity:1;fill-rule:nonzero;stroke:none" transform="translate(137.602 352.805)" fill="#f6e4c1" data-original="#f6e4c1"></path><path d="M0 0c0-35.867-29.076-64.943-64.943-64.943-35.868 0-64.944 29.076-64.944 64.943s29.076 64.943 64.944 64.943C-29.076 64.943 0 35.867 0 0" style="fill-opacity:1;fill-rule:nonzero;stroke:none" transform="translate(504.563 363.934)" fill="#b3e59f" data-original="#b3e59f"></path><path d="M0 0c0 30.054 20.42 55.329 48.14 62.735a64.992 64.992 0 0 1-16.805 2.208C-4.532 64.943-33.608 35.867-33.608 0s29.076-64.943 64.943-64.943c5.813 0 11.443.774 16.805 2.207C20.42-55.329 0-30.055 0 0" style="fill-opacity:1;fill-rule:nonzero;stroke:none" transform="translate(408.284 363.934)" fill="#95d6a4" data-original="#95d6a4"></path><path d="M0 0a12.88 12.88 0 0 0-9.107 3.772l-16.075 16.075c-5.03 5.03-5.03 13.184 0 18.215 5.032 5.03 13.187 5.03 18.215 0L0 31.095l16.885 16.884c5.03 5.031 13.186 5.031 18.215 0 5.03-5.03 5.03-13.185 0-18.214L9.107 3.772A12.88 12.88 0 0 0 0 0" style="fill-opacity:1;fill-rule:nonzero;stroke:none" transform="translate(434.355 337.048)" fill="#dbedff" data-original="#dbedff"></path><path d="m0 0-16.074 16.074c-5.025 5.024-5.03 13.164-.017 18.196-5.055 4.007-12.42 3.681-17.093-.991-5.03-5.029-5.03-13.184 0-18.215L-17.109-1.01a12.88 12.88 0 0 1 18.214 0l.02.02C.734-.681.355-.355 0 0" style="fill-opacity:1;fill-rule:nonzero;stroke:none" transform="translate(442.357 341.83)" fill="#b5dcff" data-original="#b5dcff"></path><path d="M0 0h-39.797" style="stroke-width:15;stroke-linecap:round;stroke-linejoin:round;stroke-miterlimit:10;stroke-dasharray:none;stroke-opacity:1" transform="translate(47.298 344.583)" fill="none" stroke="#000000" stroke-width="15" stroke-linecap="round" stroke-linejoin="round" stroke-miterlimit="10" stroke-dasharray="none" stroke-opacity="" data-original="#000000"></path><path d="M0 0h-39.797" style="stroke-width:15;stroke-linecap:round;stroke-linejoin:round;stroke-miterlimit:10;stroke-dasharray:none;stroke-opacity:1" transform="translate(47.298 305.63)" fill="none" stroke="#000000" stroke-width="15" stroke-linecap="round" stroke-linejoin="round" stroke-miterlimit="10" stroke-dasharray="none" stroke-opacity="" data-original="#000000"></path><path d="M0 0h-39.797" style="stroke-width:15;stroke-linecap:round;stroke-linejoin:round;stroke-miterlimit:10;stroke-dasharray:none;stroke-opacity:1" transform="translate(47.298 266.678)" fill="none" stroke="#000000" stroke-width="15" stroke-linecap="round" stroke-linejoin="round" stroke-miterlimit="10" stroke-dasharray="none" stroke-opacity="" data-original="#000000"></path><path d="M0 0h-39.797" style="stroke-width:15;stroke-linecap:round;stroke-linejoin:round;stroke-miterlimit:10;stroke-dasharray:none;stroke-opacity:1" transform="translate(47.298 227.725)" fill="none" stroke="#000000" stroke-width="15" stroke-linecap="round" stroke-linejoin="round" stroke-miterlimit="10" stroke-dasharray="none" stroke-opacity="" data-original="#000000"></path><path d="M0 0h-39.797" style="stroke-width:15;stroke-linecap:round;stroke-linejoin:round;stroke-miterlimit:10;stroke-dasharray:none;stroke-opacity:1" transform="translate(47.298 188.772)" fill="none" stroke="#000000" stroke-width="15" stroke-linecap="round" stroke-linejoin="round" stroke-miterlimit="10" stroke-dasharray="none" stroke-opacity="" data-original="#000000"></path><path d="M0 0h-39.797" style="stroke-width:15;stroke-linecap:round;stroke-linejoin:round;stroke-miterlimit:10;stroke-dasharray:none;stroke-opacity:1" transform="translate(47.298 110.865)" fill="none" stroke="#000000" stroke-width="15" stroke-linecap="round" stroke-linejoin="round" stroke-miterlimit="10" stroke-dasharray="none" stroke-opacity="" data-original="#000000"></path><path d="M0 0h-39.797" style="stroke-width:15;stroke-linecap:round;stroke-linejoin:round;stroke-miterlimit:10;stroke-dasharray:none;stroke-opacity:1" transform="translate(47.298 149.818)" fill="none" stroke="#000000" stroke-width="15" stroke-linecap="round" stroke-linejoin="round" stroke-miterlimit="10" stroke-dasharray="none" stroke-opacity="" data-original="#000000"></path><path d="M0 0v0a12.88 12.88 0 0 0-9.107 3.772l-16.075 16.075c-5.03 5.03-5.03 13.184 0 18.215 5.031 5.03 13.187 5.03 18.215 0L0 31.095l16.885 16.884c5.03 5.031 13.185 5.031 18.215 0 5.03-5.03 5.03-13.185 0-18.214L9.107 3.772A12.88 12.88 0 0 0 0 0Z" style="stroke-width:15;stroke-linecap:round;stroke-linejoin:round;stroke-miterlimit:10;stroke-dasharray:none;stroke-opacity:1" transform="translate(434.292 337.048)" fill="none" stroke="#000000" stroke-width="15" stroke-linecap="round" stroke-linejoin="round" stroke-miterlimit="10" stroke-dasharray="none" stroke-opacity="" data-original="#000000"></path><path d="M0 0c0 2.846.203 5.643.558 8.392h-273.143c-11.524 0-20.866-9.342-20.866-20.867l141.079-128.909c21.432-19.582 54.262-19.582 75.693 0L23.415-49.925C9.109-38.012 0-20.072 0 0Z" style="stroke-width:15;stroke-linecap:round;stroke-linejoin:round;stroke-miterlimit:10;stroke-dasharray:none;stroke-opacity:1" transform="translate(374.612 363.934)" fill="none" stroke="#000000" stroke-width="15" stroke-linecap="round" stroke-linejoin="round" stroke-miterlimit="10" stroke-dasharray="none" stroke-opacity="" data-original="#000000"></path><path d="M0 0c-21.432-19.582-54.262-19.582-75.693 0l-5.662 5.175-135.417-123.736c0-11.524 9.341-20.866 20.865-20.866h316.12c11.524 0 20.866 9.342 20.866 20.866L5.662 5.175Z" style="stroke-width:15;stroke-linecap:round;stroke-linejoin:round;stroke-miterlimit:10;stroke-dasharray:none;stroke-opacity:1" transform="translate(297.934 222.55)" fill="none" stroke="#000000" stroke-width="15" stroke-linecap="round" stroke-linejoin="round" stroke-miterlimit="10" stroke-dasharray="none" stroke-opacity="" data-original="#000000"></path><path d="M0 0c-27.363-7.643-47.443-32.737-47.443-62.538 0-35.867 29.076-64.943 64.943-64.943s64.943 29.076 64.943 64.943C82.443-32.737 62.363-7.643 35 0" style="stroke-width:15;stroke-linecap:round;stroke-linejoin:round;stroke-miterlimit:10;stroke-dasharray:none;stroke-opacity:1" transform="translate(422.056 426.472)" fill="none" stroke="#000000" stroke-width="15" stroke-linecap="round" stroke-linejoin="round" stroke-miterlimit="10" stroke-dasharray="none" stroke-opacity="" data-original="#000000"></path><path d="M0 0v56.141c-35.616.293-64.4 29.244-64.4 64.929 0 2.846.203 5.643.557 8.392h-273.143c-11.523 0-20.866-9.342-20.866-20.865v-247.471c0-11.524 9.343-20.865 20.866-20.865h316.12C-9.342-159.739 0-150.398 0-138.874V-35" style="stroke-width:15;stroke-linecap:round;stroke-linejoin:round;stroke-miterlimit:10;stroke-dasharray:none;stroke-opacity:1" transform="translate(439.013 242.863)" fill="none" stroke="#000000" stroke-width="15" stroke-linecap="round" stroke-linejoin="round" stroke-miterlimit="10" stroke-dasharray="none" stroke-opacity="" data-original="#000000"></path></g></g></svg>
