<svg xmlns="http://www.w3.org/2000/svg" version="1.1" xmlns:xlink="http://www.w3.org/1999/xlink" width="512" height="512" x="0" y="0" viewBox="0 0 32 32" style="enable-background:new 0 0 512 512" xml:space="preserve" fill-rule="evenodd" class=""><g><path fill="#f6b541" d="M27 15.995a2.998 2.998 0 0 0-3-3H4a2.998 2.998 0 0 0-3 3v12.997a2.998 2.998 0 0 0 3 3h20a2.998 2.998 0 0 0 3-3z" opacity="1" data-original="#f6b541"></path><path fill="#fdce66" d="M1.764 14A2.999 2.999 0 0 0 1 16v13c0 .796.316 1.559.879 2.121A2.996 2.996 0 0 0 4 32h20c.796 0 1.559-.316 2.121-.879A2.996 2.996 0 0 0 27 29V16c0-.74-.273-1.451-.764-2l-10.894 5.447a2.997 2.997 0 0 1-2.684 0z" opacity="1" data-original="#fdce66"></path><circle cx="11" cy="24" r="1" fill="#5b1a1a" transform="translate(0 -1)" opacity="1" data-original="#5b1a1a"></circle><circle cx="11" cy="24" r="1" fill="#5b1a1a" transform="translate(6 -1)" opacity="1" data-original="#5b1a1a"></circle><path fill="#5b1a1a" d="M15 26a1 1 0 0 1-2 0 1 1 0 0 0-2 0 3.001 3.001 0 0 0 6 0 1 1 0 0 0-2 0z" opacity="1" data-original="#5b1a1a"></path><circle cx="25.5" cy="58.5" r="6.286" fill="#279f62" transform="translate(-9.454 -66.455) scale(1.273)" opacity="1" data-original="#279f62"></circle><path fill="#e6e6e6" d="m19.757 9.076 1.621 1.621a1 1 0 0 0 1.414 0l3.535-3.535a1 1 0 0 0-1.414-1.414l-2.828 2.828-.914-.914a1 1 0 0 0-1.414 1.414z" opacity="1" data-original="#e6e6e6"></path></g></svg>
