<svg xmlns="http://www.w3.org/2000/svg" version="1.1" xmlns:xlink="http://www.w3.org/1999/xlink" width="512" height="512" x="0" y="0" viewBox="0 0 412 412" style="enable-background:new 0 0 512 512" xml:space="preserve" class=""><g><path fill="#f8ec7d" d="M51.488 287.691a5.68 5.68 0 0 0 5.672-5.68 5.671 5.671 0 0 0-5.672-5.671 5.68 5.68 0 0 0-5.68 5.672 5.68 5.68 0 0 0 5.68 5.68zm58.121 0a5.676 5.676 0 0 0 .012-11.351 5.67 5.67 0 0 0-5.68 5.672 5.68 5.68 0 0 0 5.668 5.68zm58.121 46.707c2.301 0 4.165-1.867 4.16-4.168a4.167 4.167 0 0 0-8.331.008 4.166 4.166 0 0 0 4.171 4.16zm58.122-46.707a5.68 5.68 0 0 0 5.68-5.671 5.676 5.676 0 1 0-11.352-.008 5.683 5.683 0 0 0 5.672 5.68zm58.117 0a5.676 5.676 0 0 0 .011-11.351 5.676 5.676 0 0 0-5.68 5.672 5.69 5.69 0 0 0 5.669 5.68zM329.46 178.02V386c0 11.047-8.957 20-20 20H26c-11.047 0-20-8.953-20-20V178.02c.004-11.043 8.957-19.997 20-20h283.46c11.044.003 19.997 8.957 20 20zm0 0" opacity="1" data-original="#f8ec7d" class=""></path><path fill="#6fe3ff" d="M210.86 6c35.726 0 64.687 28.965 64.69 64.691v87.329h-21.57V70.69c-.023-23.808-19.312-43.101-43.12-43.132h-26.962V6zM81.48 156.941v1.079H59.91V70.69C59.91 34.965 88.875 6 124.602 6h26.957v21.559h-26.957c-23.809.03-43.098 19.324-43.122 43.132zm0 0" opacity="1" data-original="#6fe3ff"></path><g fill="#63316d"><path d="M210.86 0h-86.258C85.578.043 53.953 31.668 53.91 70.691v81.329H26c-14.352.015-25.984 11.648-26 26V386c.016 14.352 11.648 25.984 26 26h283.46c14.353-.016 25.985-11.648 26-26V178.02c-.015-14.352-11.647-25.985-26-26h-27.91V70.69C281.509 31.668 249.884.043 210.86 0zm58.69 70.691v81.329h-9.57V70.69c-.027-27.12-22.003-49.097-49.12-49.132h-20.962V12h20.961c32.399.035 58.653 26.293 58.692 58.691zM157.56 21.56V12h20.34v9.559zm53.3 12c20.496.027 37.102 16.636 37.121 37.132v81.329H87.48V70.69c.02-20.496 16.625-37.105 37.122-37.132zM65.91 70.69C65.945 38.293 92.203 12.035 124.602 12h20.957v9.559h-20.957C97.48 21.594 75.508 43.57 75.48 70.69v81.329h-9.57zM323.46 178.02V386c-.007 7.73-6.272 13.992-14 14H26c-7.73-.008-13.992-6.27-14-14V178.02c.008-7.727 6.27-13.993 14-14h283.46c7.728.007 13.993 6.273 14 14zm0 0" fill="#63316d" opacity="1" data-original="#63316d"></path><path d="M109.61 293.691c6.449 0 11.68-5.222 11.68-11.671.003-6.45-5.224-11.676-11.669-11.68-6.45-.004-11.68 5.222-11.68 11.672.004 6.441 5.223 11.668 11.668 11.68zm0-12a.312.312 0 0 1 .234.09c.058.059.097.14.097.23a.33.33 0 0 1-.66 0c0-.09.035-.171.098-.23a.303.303 0 0 1 .23-.09zM225.852 293.691c6.445 0 11.675-5.222 11.68-11.671 0-6.45-5.223-11.676-11.673-11.68s-11.675 5.222-11.68 11.672c.005 6.441 5.227 11.668 11.673 11.68zm0-12a.303.303 0 0 1 .23.09c.063.059.098.14.098.23a.33.33 0 0 1-.66 0c0-.09.035-.171.097-.23a.306.306 0 0 1 .235-.09zM51.488 293.691c6.45-.004 11.672-5.23 11.672-11.68 0-6.445-5.226-11.671-11.672-11.671-6.449 0-11.675 5.222-11.68 11.672.008 6.445 5.235 11.672 11.68 11.68zm0-12a.318.318 0 0 1 .23.09.318.318 0 0 1 .09.23.303.303 0 0 1-.09.231.33.33 0 0 1-.465.004.33.33 0 0 1 .005-.465.303.303 0 0 1 .23-.09zM283.969 293.691c6.449 0 11.68-5.222 11.68-11.671.003-6.45-5.22-11.676-11.669-11.68s-11.675 5.222-11.68 11.672c.009 6.441 5.227 11.664 11.669 11.68zm0-12a.312.312 0 0 1 .234.09c.063.059.098.14.098.23a.327.327 0 0 1-.559.23.322.322 0 0 1-.094-.23c0-.085.032-.167.094-.23a.303.303 0 0 1 .227-.09zM142.73 260.621c3.313 0 6-2.687 6-6a19.006 19.006 0 0 1 6.051-13.91 19.016 19.016 0 0 1 14.305-5.047 19.003 19.003 0 0 1 8.168 35.402 31.672 31.672 0 0 0-15.524 27.446v10.847c0 3.313 2.688 6 6 6s6-2.687 6-6v-10.847a19.64 19.64 0 0 1 9.54-17.063c13.011-7.539 18.738-23.328 13.582-37.453s-19.707-22.512-34.516-19.894c-14.809 2.613-25.602 15.48-25.606 30.52 0 3.312 2.688 6 6 6zM167.73 320.07c-5.613.004-10.16 4.555-10.16 10.168 0 5.61 4.551 10.16 10.164 10.16 5.614.004 10.164-4.546 10.164-10.16-.003-5.613-4.554-10.16-10.168-10.168zm0 12a1.841 1.841 0 0 1-1.699-1.129 1.836 1.836 0 1 1 1.7 1.129zm0 0" fill="#63316d" opacity="1" data-original="#63316d"></path></g></g></svg>
