<svg xmlns="http://www.w3.org/2000/svg" version="1.1" xmlns:xlink="http://www.w3.org/1999/xlink" width="512" height="512" x="0" y="0" viewBox="0 0 510 510" style="enable-background:new 0 0 512 512" xml:space="preserve" fill-rule="evenodd" class=""><g><path fill="#837683" d="M277.168 220.573h35.709v-42.77c0-42.911-35.082-78.026-77.993-78.026s-78.026 35.115-78.026 78.026v42.77h35.743v-42.77c0-23.223 19.093-42.316 42.283-42.316s42.284 19.093 42.284 42.316z" opacity="1" data-original="#837683"></path><path fill="#685e68" d="M182.601 220.573v-42.77c0-23.223 19.093-42.316 42.283-42.316 1.691 0 3.359.101 5 .298-20.872 2.507-37.283 20.488-37.283 42.018v42.77zm120.276 0v-42.77c0-41.232-32.39-75.266-72.993-77.866a78.167 78.167 0 0 1 5-.16c42.911 0 77.993 35.115 77.993 78.026v42.77z" opacity="1" data-original="#685e68"></path><path fill="#ffe177" d="M139.383 210.573h191.002c7.862 0 14.238 6.408 14.238 14.237v151.824c0 7.862-6.376 14.238-14.238 14.238H139.383c-7.862 0-14.27-6.376-14.27-14.238V224.81c0-7.829 6.408-14.237 14.27-14.237z" opacity="1" data-original="#ffe177"></path><path fill="#ffd064" d="M310.385 210.573h20c7.862 0 14.238 6.408 14.238 14.237v151.824c0 7.862-6.376 14.238-14.238 14.238h-20c7.862 0 14.238-6.376 14.238-14.238V224.81c0-7.829-6.376-14.237-14.238-14.237z" opacity="1" data-original="#ffd064"></path><path fill="#eceff1" d="M234.884 246.547c15.328 0 27.749 12.454 27.749 27.781 0 10.01-5.253 18.764-13.181 23.653v42.349c0 8.027-6.574 14.568-14.568 14.568-8.027 0-14.568-6.541-14.568-14.568v-42.349c-7.928-4.889-13.213-13.643-13.213-23.653 0-15.327 12.454-27.781 27.781-27.781z" opacity="1" data-original="#eceff1"></path><path fill="#d1d1d6" d="M239.878 354.01a14.442 14.442 0 0 1-4.994.888c-8.027 0-14.568-6.541-14.568-14.568v-42.349c-7.928-4.889-13.213-13.643-13.213-23.653 0-15.327 12.454-27.781 27.781-27.781 1.707 0 3.378.154 5 .45-12.947 2.359-22.781 13.71-22.781 27.331 0 10.01 5.285 18.764 13.213 23.653v42.349c0 6.269 3.99 11.632 9.562 13.68z" opacity="1" data-original="#d1d1d6"></path><path fill="#837683" d="m367.055 334.108-33.548 27.394a4.999 4.999 0 0 1-8.061-2.87l-5.019-24.524H298.76c-2.047 0-4.01-.891-5.457-2.476s-2.26-3.735-2.26-5.977v-61.918c0-2.242.813-4.392 2.26-5.977s3.41-2.476 5.457-2.476h192.523c2.047 0 4.01.891 5.457 2.476s2.26 3.735 2.26 5.977v61.918c0 2.242-.813 4.392-2.26 5.977s-3.41 2.476-5.457 2.476z" opacity="1" data-original="#837683"></path><path fill="#685e68" d="M481.283 255.284h10c2.047 0 4.01.891 5.457 2.476s2.26 3.735 2.26 5.977v61.918c0 2.242-.813 4.392-2.26 5.977s-3.41 2.476-5.457 2.476h-10c2.047 0 4.01-.891 5.457-2.476s2.26-3.735 2.26-5.977v-61.918c0-2.242-.813-4.392-2.26-5.977s-3.41-2.476-5.457-2.476zm-114.228 78.824-33.548 27.394a4.998 4.998 0 0 1-7.735-1.85l31.283-25.544z" opacity="1" data-original="#685e68"></path><path fill="#eceff1" d="M324.642 280.84v-6.129c0-4.415 3.585-8 8-8 4.416 0 8 3.585 8 8v6.129l5.309-3.065a8.004 8.004 0 0 1 10.928 2.929 8.004 8.004 0 0 1-2.929 10.928l-5.308 3.064 5.308 3.065a8.004 8.004 0 0 1 2.929 10.928 8.003 8.003 0 0 1-10.928 2.928l-5.309-3.065v6.129c0 4.415-3.584 8-8 8-4.415 0-8-3.585-8-8v-6.128l-5.307 3.064a8.003 8.003 0 0 1-10.928-2.928 8.003 8.003 0 0 1 2.928-10.928l5.308-3.065-5.308-3.064a8.003 8.003 0 0 1-2.928-10.928c2.207-3.824 7.104-5.136 10.928-2.929zm62.379 0v-6.129c0-4.415 3.585-8 8-8 4.416 0 8 3.585 8 8v6.129l5.308-3.065c3.824-2.207 8.721-.895 10.928 2.929a8.003 8.003 0 0 1-2.928 10.928l-5.308 3.064 5.308 3.065a8.003 8.003 0 0 1 2.928 10.928 8.003 8.003 0 0 1-10.928 2.928l-5.308-3.065v6.129c0 4.415-3.584 8-8 8-4.415 0-8-3.585-8-8v-6.128l-5.308 3.064a8.003 8.003 0 0 1-10.928-2.928 8.004 8.004 0 0 1 2.929-10.928l5.308-3.065-5.308-3.064a8.004 8.004 0 0 1-2.929-10.928 8.004 8.004 0 0 1 10.928-2.929zm62.379 0v-6.129c0-4.415 3.585-8 8-8s8 3.585 8 8v6.129l5.308-3.065c3.824-2.207 8.721-.895 10.928 2.929a8.003 8.003 0 0 1-2.928 10.928l-5.308 3.064 5.308 3.065a8.003 8.003 0 0 1 2.928 10.928 8.003 8.003 0 0 1-10.928 2.928l-5.308-3.065v6.129c0 4.415-3.585 8-8 8s-8-3.585-8-8v-6.128l-5.308 3.064a8.003 8.003 0 0 1-10.928-2.928 8.005 8.005 0 0 1 2.928-10.928l5.308-3.065-5.308-3.064a8.005 8.005 0 0 1-2.928-10.928 8.004 8.004 0 0 1 10.928-2.929z" opacity="1" data-original="#eceff1"></path><path fill="#8ac9fe" d="m448.255 187.451 9.349-12.2c2.685-3.504 7.711-4.17 11.216-1.484s4.17 7.711 1.484 11.216l-19.105 24.932a7.998 7.998 0 0 1-9.416 2.523l-29.011-12.039c-4.078-1.693-6.015-6.378-4.323-10.456s6.377-6.015 10.455-4.322l13.798 5.726C405.706 107.863 327.29 47.416 234.868 47.416 120.142 47.416 27 140.559 27 255.284c0 44.46 13.987 85.678 37.8 119.489a8.004 8.004 0 0 1-1.934 11.148 8.004 8.004 0 0 1-11.147-1.935C26.07 347.568 11 303.172 11 255.284 11 131.728 111.312 31.416 234.868 31.416c99.913 0 184.626 65.597 213.387 156.035zM132.158 436.009c3.836 2.187 5.175 7.076 2.988 10.912s-7.076 5.175-10.912 2.989a224.906 224.906 0 0 1-47.077-35.802c-3.133-3.111-3.151-8.181-.04-11.314s8.181-3.15 11.314-.039a208.898 208.898 0 0 0 43.727 33.254zm81.848 26.107a8.005 8.005 0 0 1 7.166 8.755 8.003 8.003 0 0 1-8.755 7.166 222.412 222.412 0 0 1-52.754-11.853 8.003 8.003 0 0 1-4.844-10.224 8.003 8.003 0 0 1 10.224-4.844 206.453 206.453 0 0 0 48.963 11zm85.958-9.376a8.003 8.003 0 0 1 10.103 5.091 8.002 8.002 0 0 1-5.09 10.103 222.717 222.717 0 0 1-53.762 10.629c-4.404.318-8.238-2.999-8.556-7.402a8.004 8.004 0 0 1 7.402-8.557 206.759 206.759 0 0 0 49.903-9.864zm79.238-47.926a8.004 8.004 0 0 1 11.312.198 8.003 8.003 0 0 1-.199 11.312 224.756 224.756 0 0 1-49.438 36.15 8.004 8.004 0 0 1-10.838-3.246 8.004 8.004 0 0 1 3.245-10.838 208.734 208.734 0 0 0 45.918-33.576zm33.691-42.222c2.285-3.778 7.207-4.992 10.985-2.707a8.004 8.004 0 0 1 2.708 10.985 224.541 224.541 0 0 1-10.352 15.611 8.004 8.004 0 0 1-11.172 1.782c-3.575-2.591-4.374-7.598-1.782-11.172a208.544 208.544 0 0 0 9.613-14.499z" opacity="1" data-original="#8ac9fe"></path></g></svg>
