<svg xmlns="http://www.w3.org/2000/svg" version="1.1" width="512"
     height="512" x="0" y="0" viewBox="0 0 512.002 512.002" style="enable-background:new 0 0 512 512"
     xml:space="preserve" class=""><g><path d="M439.813 390.424c.961-1.375 3.878-5.65 5.625-5.845.05-.005.096-.022.145-.028 2.627-.08 5.24-.244 7.81-.593 4.258-.576 11.109-.942 14.337-4.089 4.046-3.943 2.245-11.226 1.964-16.147-.402-7.043-2.092-15.419-8.706-19.352-3.056-1.818-6.304-2.068-9.759-2.171-5.097-.149-10.507-1.402-15.579-2.138-3.161-.461-6.096-.71-9.158-.467.16-2.527.013-5.098-.078-7.334-.254-6.191-2.968-11.648-9.597-12.941-.891-.173-1.789-.23-2.688-.241a3.963 3.963 0 0 0-.605-2.251c-4.047-6.451-5.754-10.906-5.918-18.698-.16-7.647-.336-16.223 1.436-23.719 1.435-6.071 5.687-12.708 9.958-17.141 3.286-3.41 5.533-7.564 8.709-11.009.008-.009.012-.019.021-.027 2.408.589 4.789 1.244 7.314.941 8.049-.961 8.194-8.963 7.698-15.363-.529-6.789.887-12.697-6.811-14.926-3.259-.943-5.992-2.516-9.513-2.824-4.439-.39-8.981.178-13.438.133-10.352-.105-19.202-2.771-28.684 2.037-9.627-.116-19.237-.783-28.867-.739-8.257.036-16.138-1.008-24.343-1.481-8.708-.504-17.527-.231-26.25-.299-3.906-.031-7.792.205-11.644-.27 3.376-1.339 6.304-3.322 9.226-5.548 7.697-5.865 15.989-11.288 23.082-17.889 7.243-6.741 12.189-16.888 15.537-26.042 3.564-9.741 7.908-20.531 9.139-30.829 1.185-9.919 3.81-19.964 3.11-30.016-.642-9.228-3.675-18.524-7.515-26.892-4.039-8.798-9.498-17.146-15.443-24.779-6.152-7.899-14.304-13.471-22.877-18.499-9.403-5.514-19.013-9.497-30.047-9.745-5.491-.125-12.675.628-18.293 3.43.952-3.753 1.929-7.325 3.531-10.985 2.407-5.494 3.134-11.349-3.102-14.412-5.376-2.639-10.781-.748-15.185 2.796-5.753 4.63-12.521 10.379-15.159 17.388-.851 2.26-2.232 4.436-3.332 6.685-2.205-2.677-4.958-4.967-8.139-7.161-4.003-2.765-8.65-4.338-12.941-6.58-3.961-2.068-7.692-3.926-12.072-4.974-8.676-2.077-18.689-5.417-27.685-4.924-1.87.103-3.611.539-5.436.881-2.373.444-3.934.286-6.396.16-2.588-.132-4.725.377-6.205 2.653-2.299 3.535-.592 8.511.588 12.11 3.688 11.244 9.46 21.742 17.486 30.459-5.286 1.403-10.402 4.539-13.771 7.953-3.634 3.681-7.751 6.592-10.847 10.8-3.611 4.907-6.291 10.351-8.683 15.938-4.356 10.171-7.495 20.577-5.962 31.714 1.76 12.782 3.955 24.457 8.013 36.76 7.574 22.96 21.42 40.971 41.13 54.823 2.032 1.427 3.914 2.887 5.866 4.213-11.062.305-22.13.526-33.149 2.209-8.324 1.269-16.585 3.005-24.895 4.388-8.821 1.47-17.994 2.731-26.487 5.64-15.111 5.174-24.108 17.359-29.073 32.094-2.461 7.302-5.159 14.739-6.967 22.226-2.006 8.312-1.409 16.55-1.2 24.997.373 15.077-.854 34.475 13.343 43.869 2.843 1.882 5.676 2.523 9.041 2.776.502.037 1.006.086 1.512.14-6.126 3.817-12.747 7.14-17.861 12.225-2.695 2.68-4.08 6.093-6.329 9.09-2.522 3.364-4.449 6.519-6.106 10.405-3.549 8.316-7.999 16.546-9.732 25.498-1.853 9.579-1.15 19.936-.914 29.655.217 8.875 1.631 18.37 4.263 26.857 4.57 14.743 15.069 28.957 29.281 35.584 15.639 7.292 35.329 7.682 52.24 7.827 5.061.042 9.976 1.228 15.023 1.379 4.504.133 9.05.026 13.554-.065 4.482-.091 8.713.766 13.154 1.14 4.966.418 9.96.125 14.934.416 4.711.277 9.414.907 14.142.666 5.154-.264 10.109-1.122 15.304-.979 9.43.257 18.221-1.738 27.549-2.136 3.998-.172 7.946-.076 11.896-.818 5.038-.946 9.916-.507 15-.932 9.391-.782 18.449-1.085 27.88-1.036 23.344.122 46.79 1.395 70.12.217 4.612-.232 9.049-1.656 13.64-1.658 5.415-.004 10.718.323 16.125-.284 5.645-.633 10.57-.946 16.234-.155a29.34 29.34 0 0 0 4.609.264c6.871.82 14.331-1.846 21.38-1.954 7.446-.116 21.693 2.069 26.758-5.259 3.893-5.632 1.616-15.372-.042-21.429-.952-3.477-2.176-6.808-5.557-8.554-4.277-2.21-10.019-.254-14.595-.232-.719.003-1.435.022-2.153.03.065-1.542-.553-3.127-1.581-4.25a4.894 4.894 0 0 0-1.551-1.158c-1.837-5.006-4.478-9.743-5.512-14.996-1.492-7.568-1.705-15.804-1.67-23.505.036-8.239 1.88-15.713 4.046-23.602.886-3.215 1.403-6.312 3.349-9.096zm-31.81-61.075c4.661.33 7.175-1.072 7.717 4.951.11 1.226-.027 2.477.074 3.707.288 3.489.596 1.83-1.418 1.77-6.831-.207-13.675-1.004-20.498-1.705-6.934-.714-13.662-1.399-20.631-.596-8.674 1-17.012.718-25.719.638-17.491-.157-34.995.032-52.487.049-17.423.015-35.789-1.671-53.039.941-8.275 1.254-17.247 1.585-25.634 1.513-8.943-.078-17.328-1.833-26.357-1.063a4.715 4.715 0 0 0-1.509.386 426.784 426.784 0 0 0-.255-9.33c2.326-.113 4.519-.199 6.916.046 3.444.35 6.354-1.32 9.8-.893 7.768.961 14.96 1.452 22.852 1.162 7.718-.284 15.314.239 23.008.751 7.7.511 14.661-.208 22.27-.933 7.351-.698 15.068.045 22.443.282 8.061.259 15.684-.276 23.665-1.205 7.344-.855 14.62-.151 21.99-1.203 7.991-1.138 15.467.848 23.422.822 6.97-.026 13.457-.562 20.364-1.217 7.908-.751 15.228.573 23.026 1.127zm10.167-83.378c-1.033.941-1.37 2.434-2.147 3.525-1.221 1.71-2.79 2.882-4.202 4.381-5.075 5.385-9.995 13.638-11.168 20.999-1.973 12.379-5.8 31.799 1.969 43.478-2.205-.368-4.41-.721-6.695-.746-7.941-.089-15.691 1.567-23.574 1.566-4.546 0-9.308.345-13.823-.228-4.077-.516-7.875-1.354-12.045-1.192-3.997.155-7.88 1.073-11.846 1.418-4.302.375-8.604-.241-12.906.027-8.859.549-17.234 1.733-26.196 1.431-8.638-.291-17.419-.996-26.006.141-10.294 1.364-20.202.162-30.506-.241-9.656-.377-19.872 1.621-29.424-.178-4.002-.753-6.283-1.316-10.401-.63-3.561.594-7.572.583-11.384.698-.312-6.49-.625-12.929-.556-19.495.042-3.902.019-7.809.218-11.705.162-3.142.592-6.496-1.307-9.275-3.246-4.75-10.494-4.971-15.682-5.161-5.93-.217-11.697.775-17.548 1.535-4.776.62-10.089 1.75-12.892 6.108-1.463 2.273-1.774 4.983-1.699 7.636-9.306-.701-18.585-.433-27.919-.331-1.548.018-1.551 2.39 0 2.407 9.37.103 18.676.373 28.015-.336.384 4.584 2.422 7.264 3.644 11.512.177.615.56 1.109 1.042 1.476-.359 5.85-.553 11.719-.703 17.581-6.726-1.122-13.753.728-20.111-.683-7.202-1.599-18.591-1.219-22.913-8.542-4.412-7.474-3.254-19.577-3.066-27.938.103-4.634 1.174-8.928 2.282-13.4 1.069-4.322 1.309-8.774 3.391-12.782 4.857-9.348 14.101-7.896 22.999-9.853 9.095-1.999 18.459-2.63 27.747-3.722 9.298-1.094 18.936-1.67 28.3-1.585 4.531.04 9.047.23 13.575.339 5.061.123 9.836-.883 14.851-1.233 10.052-.705 19.994.086 30.051-.973 9.906-1.044 19.981-1.658 29.953-1.738 5.001-.041 9.568 1.285 14.466 1.619 4.406.3 8.97-.119 13.394-.119 9.69.003 19.373-.264 29.061-.297 9.813-.031 19.429 1.607 29.224 1.574 9.984-.035 19.766 1.277 29.734 1.305 9.727.027 19.496 1.498 29.165 1.25 1.444-.036 2.88-.122 4.313-.172-.24.178-.467.359-.675.549zM151.059 352.315c-.321-7.405-.374-14.829-.597-22.238-.318-10.521-.476-21.148-1.341-31.678.136-.779.234-1.567.235-2.373.003-2.076-1.73-5.943-.214-7.826 1.413-1.755 6.98-1.313 9.07-1.597 4.777-.648 9.384-1.391 14.241-1.15 1.3.04 2.594.158 3.879.353 1.774-.182 2.154.325 1.14 1.517.529 1.961-.194 5.293-.169 7.362.145 11.666 1.23 23.149 1.658 34.772.225 6.085-.076 12.196-.117 18.284-.024 3.466-.232 6.64-.814 10.055-.104.608-.171 1.463-.285 2.359-2.878-2.473-5.22-5.472-7.174-8.785-1.838-3.113-4.267-5.976-8.217-5.909-4.075.071-6.685 3.321-8.907 6.295-.756 1.011-1.565 2.004-2.362 3.004a68.456 68.456 0 0 0-.026-2.445zm82.313-318.81c.59-2.752 2.411-5.269 3.432-7.943 2.31-6.046 8.041-12.271 13.42-16.128 1.104-.792 2.67-1.995 4.124-1.71 2.851.557 1.657 1.767 1.017 3.668-.804 2.386-2.509 4.605-3.446 6.999-2.432 6.215-5.088 12.685-7.115 19.031-1.797 5.628-2.486 12.185-3.242 18.053-.615 4.776-.126 8.982 2.523 12.529-1.092.54-2.182 1.086-3.286 1.585-2.318-8.229-4.621-16.531-6.057-24.959-.592-3.47-2.102-7.717-1.37-11.125zm-75.541-5.695a99.12 99.12 0 0 1-2.58-5.663c-.784-1.886-1.069-4.513-1.779-6.533.503.1.924.175 1.15.217 4.018.759 7.492-.901 11.493-.916 4.577-.018 9.208 1.626 13.66 2.559 4.019.842 8.13 1.23 12.117 2.214 4 .988 7.499 3.007 11.253 4.639 4.291 1.865 8.451 3.481 12.248 6.26 3.549 2.598 5.984 5.078 7.845 9.066.349.75 1.327 2.16 2.301 3.694.022.122.047.244.065.365.298 1.866 1.259 8.604 3.059 15.314-3.475-3.848-7.354-7.307-11.961-9.805-4.236-2.295-8.706-4.5-13.031-6.595-5.137-2.489-10.713-3.783-15.748-6.654-.924-.526-1.956.738-1.155 1.497A114.242 114.242 0 0 0 209.5 54.141c4.608 2.568 8.555 6.024 11.57 10.369-2.746-.562-5.671-.281-8.461-.394-5.663-.227-9.638-1.046-14.796-3.443-8.498-3.947-17.835-7.226-24.748-13.771-5.822-5.513-11.683-11.867-15.234-19.092zm67.206 43.072c-1.172.045-2.342.135-3.466.026a92.71 92.71 0 0 1 1.895-.969c.239-.118.434-.261.605-.416.296.466.616.92.966 1.359zm-53.171 117.771c-7.763-7.706-14.894-15.013-19.922-24.851-4.576-8.953-8.502-18.831-11.342-28.473-2.968-10.076-5.539-21.799-3.405-32.23 2.076-10.154 6.877-22.942 14.341-30.402 6.348-6.346 13.171-11.058 21.009-15.005 7.167 5.524 15.919 9.403 24.046 13.005 4.789 2.122 9.65 3.084 14.869 3.196h.009c5.857 5.794 15.102 8.063 23.103 7.902 3.099-.063 5.969-.884 8.765-1.974a35.793 35.793 0 0 0 4.124-1.377c9.66-3.943 20.066-8.086 24.555-18.401.843-1.937 1.058-4.645-.797-6.18-2.93-2.425-5.779-1.371-8.447 1.001-1.982 1.764-3.281 3.876-4.993 5.885-1.48 1.737-3.087 2.76-4.894 3.644-.331-3.119-1.246-6.021-.77-9.448.59-4.246 1.022-8.732 2.009-12.901.488-2.061 1.239-4.034 2.006-6.002 8.124.521 16.679-2.018 24.852-.832 10.836 1.572 21.011 8.266 29.741 14.545 8.683 6.246 14.615 15.413 19.9 24.584 5.096 8.845 9.311 19.546 9.668 29.841.203 5.872-.983 11.442-2.081 17.162-.997 5.195-1.158 10.492-2.712 15.567-3.263 10.661-6.46 22.8-12.223 32.437-5.722 9.566-14.072 16.012-23.055 22.397-4.048 2.878-7.975 6.689-12.641 8.533-2.511.993-5.175 1.268-7.595 2.598-1.595.877-2.843 2.187-4.27 3.228-.818.221-1.672.47-2.639.707-3.177.775-3.389.222-6.001-1.733-2.153-1.611-4.281-3.261-6.609-4.618-3.271-1.905-6.718-3.535-10.016-5.41-2.671-1.52-5.509-2.787-8.643-2.203-3.294.615-5.592 2.964-8.203 4.843-3.975 2.864-9.335 3.555-13.982 5.16-2.77.955-6.587-.172-10.31.892-1.857.531-3.671 1.662-5.66 1.625-2.353-.045-5.314-.904-7.665-1.296-4.684-.784-7.952-2.869-11.65-5.734-4.264-3.304-8.602-5.842-12.472-9.682zm86.154 23.313c-1.257.001-2.516.009-3.771.001l-25.09-.149c1.113-.693 2.203-1.377 3.263-1.991a35.061 35.061 0 0 0 6.252-4.576c2.593-2.389 3.839-5.269 7.782-3.358 4.28 2.076 8.111 6.437 11.564 10.073zM80.386 338.426c-5.17-1.675-6.374-7.803-7.165-12.338-1.375-7.886-1.147-15.847-1.364-23.813-.213-7.801-.407-15.007 1.833-22.579 2.059-6.961 4.332-14.101 6.916-20.885 2.488-6.528 6.169-13.144 11.944-17.29 6.026-4.327 13.639-5.664 20.754-7.142 15.758-3.274 32.038-6.682 48.067-8.121 7.659-.688 15.348-.94 23.035-1.013 8.343-.078 16.509-1.445 24.807-1.45 15.806-.01 31.611-.131 47.416-.225 7.294-.042 14.575-.139 21.864-.375 7.368-.239 14.346 1.474 21.729 1.296 8.769-.211 17.55-.189 26.321-.264 8.077-.069 16.009 1.364 24.104 1.172 9.118-.217 18.23-.454 27.346-.755 8.687-.286 18.287-2.276 26.722.365 1.666.521 2.937-.121 3.644-1.196a33.17 33.17 0 0 0 2.28.119c4.047.051 8.052-.199 12.091-.327 2.168-.069 3.984.047 6.017.76.66.232 2.983.875 4.302 1.423-.281.209-.082 1.298-.081 2.222.001 1.561.208 3.107.322 4.662.062.83.783 4.984.104 5.509.1-.078-3.657-1.236-4.129-1.344-8.103-1.861-16.496-.421-24.741-1.361-10.284-1.169-20.696.196-30.945-1.104-9.711-1.232-19.475-.122-29.168-1.299-18.547-2.255-38.054-1.289-56.719-.678-4.21.137-8.061-1.204-12.23-1.5-5.134-.366-10.421-.078-15.563.096-9.71.329-19.362 2.054-29.048 2.557-5.451.284-10.959.042-16.421.15-5.202.103-10.138 1.151-15.296 1.58-9.38.78-18.88-.583-28.272.418-9.167.978-18.422 1.44-27.563 2.644-4.258.562-8.59.612-12.809 1.246-4.694.707-9.122 2.04-13.874 2.549-7.085.761-14.049 2.74-19.338 7.744-5.939 5.619-6.594 12.925-8.61 20.403-2.755 10.22-3.132 20.459-2.502 31.013.493 8.249 2.011 17.029 8.989 22.389 6.927 5.322 16.473 5.408 24.649 6.329 3.824.431 5.512.833 9.378-.163 1.945-.502 3.934-.557 5.902-.956 2.553-.517 4.756-1.846 7.243-2.563-.095 3.992-.185 7.981-.3 11.95-.009.293-.005.59-.01.883a6.055 6.055 0 0 0-2.068-.34c-6.101.091-12.308.643-18.395.375-2.246-.099-4.391-.353-6.571.243-4.595-.814-9.221-1.219-13.943-.617-4.132.526-7.42.99-11.653.402-2.825-.385-6.357.056-9.001-.801zm355.855 138.5c5.296.044 10.546.131 15.821-.252 1.919-.139 1.756-.639 2.729.51.647.765.701 3.544.836 4.635.245 1.993.38 4.073.294 6.084-.031.72-.123 1.432-.198 2.142l-.005-.001c-5.008-.089-10.195.216-15.269.144-4.269-.059-8.271.384-12.381.802-1.892-.771-4.073-.694-5.648.506-2.729.2-5.523.373-8.247.769a50.857 50.857 0 0 1-3.554-.289c-3.815-.452-7.285-.486-11.098-.05-8.249.945-16.847-.116-24.975 1.159-17.237 2.702-35.021 1.762-52.472 1.486-17.995-.284-35.816-.694-53.74.778-3.856.317-7.708-.16-11.547.169-4.172.357-8.081 1.404-12.303 1.525-7.65.218-15.052 2.088-22.67 2.382-4.599.178-9.197-.385-13.793-.144-3.961.205-7.834 1.037-11.813 1.079-4.333.045-8.652-.56-12.975-.765-4.925-.235-9.914.177-14.819-.421-7.588-.924-14.867-.991-22.533-.973-8.547.021-16.989-1.299-25.59-1.262-8.086.033-16.72-1.024-24.664-2.59-8.491-1.675-16.62-3.686-23.325-9.457-12.13-10.44-16.903-25.389-18.754-40.818-1.159-9.666-1.552-21.138-.442-30.823 1.037-9.036 5.591-17.341 9.053-25.616 3.408-8.146 9.14-16.768 16.455-21.745 3.428-2.331 7.063-4.35 10.462-6.727 2.921-2.043 8.885-8.316 12.756-7.225 1.54.434 2.753-.16 3.457-1.15.615-.092 1.23-.176 1.846-.231 4.082-.366 8.045-.635 12.045-1.285 6.492 2.006 14.186 1.481 20.769 1.59a6.004 6.004 0 0 0 2.149-.361c-.035 3.636-.275 7.234-1.174 10.611-1.267 4.756-1.568 8.926 2.867 11.977 1.447.993 3.495.804 4.96 0 3.834-2.106 5.563-5.383 7.559-9.127.646-1.21 4.749-9.858 5.866-9.688.716.109 3.118 5.809 4.119 7.108 3.084 3.993 6.775 7.672 11.048 10.357 2.006 1.26 4.211.561 5.904-.762 4.414-3.45 4.786-12.067 5.053-17.215.113-2.165.18-4.356.212-6.56.44.189.933.327 1.498.372 16.722 1.344 33.375 3.762 50.219 2.17 17.722-1.674 35.716-.796 53.531-.779 12.662.013 25.337-.109 38.008-.085 7.133.448 14.327.348 21.516.361 6.07.013 12.234-.462 18.292-.18 2.657.125 5.2.952 7.768 1.368.349.813 1.072 1.453 2.268 1.651 7.455 1.239 13.489-.237 20.85-.647 7.423-.413 14.699.99 22.066-.407 7.93-1.507 15.226.693 23.121 1.497 3.706.377 7.337-.95 9.813 2.612 2.281 3.285 2.092 7.549 2.414 11.316.117 1.381.185 2.835.399 4.202.112.712-.397 2.222.005 2.305-1.47.603-4.237.626-5.564.848-8.276 1.382-16.843.819-25.221.829-8.031.009-16.306.538-24.289-.383-8.421-.97-16.369.787-24.764.435-8.063-.339-15.875-1.207-24.005-1.21-8.921-.003-18.015-.596-26.915-.027-7.516.481-14.794 1.284-22.362 1.293-8.663.012-17.333-.022-25.993.223-7.563.212-14.612-.588-22.114-1.246-3.676-.323-7.061.047-10.687.494-4.225.521-7.572-.417-11.779-.746-8.352-.651-16.772 1.026-25.095-.166-7.622-1.092-14.155.427-21.756.465-8.801.044-17.368 1.887-26.143 1.838-9.022-.049-18.02-.317-27.047-.234-7.519.071-14.514-3.647-21.908-1.602-1.196.332-2.362.619-3.504.895a1.203 1.203 0 0 0-1.036-.225c-4.758 1.137-7.827.557-12.042 3.543-3.129 2.217-6.038 4.853-9.076 7.206-6.504 5.034-8.595 10.243-11.041 17.904-2.793 8.745-5.248 17.524-4.987 26.821.122 4.282 1.303 8.416 1.264 12.705-.039 4.193-.411 8.307.453 12.448.786 3.77 2.201 7.677 4.26 10.94 1.644 2.606 3.113 6.23 5.241 8.411 5.157 5.282 12.055 5.558 18.872 5.455 10.345-.157 20.832-.136 31.113-1.458 3.229-.415 6.23.123 9.457-.221 2.18-.232 4.363-.118 6.386-.202 1.851-.077 2.58.014 4.157-1.174.267-.199.485-.42.673-.651.101.898.184 1.785.304 2.697.603 4.523.896 8.566 5.503 10.75 2.032.963 4.392.558 5.626-1.475 3.149-5.195 8.466-8.596 13.055-12.434 3.454-2.887 4.543-.037 6.532 3.064 1.441 2.246 2.876 4.504 4.648 6.512 4.448 5.044 13.497 13.135 17.64 2.817 1.295-3.223 1.15-7.094.958-10.715 19.265 2.378 38.735 4.587 58.127 2.114 11.41-1.454 23.445-.258 34.936-.245 11.91.013 23.671-1.008 35.539-1.213 5.458-.094 10.922.082 16.382.032 5.565-.051 11.04-1.268 16.596-1.248 4.921.019 9.764 1.178 14.688 1.3 5.471.133 10.964.013 16.437.019 11.522.022 22.964-1.309 34.442-1.215zm-237.155-4.09c.081 2.372-.268 5.281-.065 7.817-2.688-3.566-5.989-6.981-8.747-10.546-2.368-3.059-4.806-5.531-9.021-4.919-4.232.615-7.329 4.421-10.388 7.048-2.765 2.375-5.455 4.608-7.893 7.146-1.164-4.463-.925-12.114-.918-14.037.021-5.803.006-11.609-.036-17.41-.041-5.628-.626-11.475-.195-17.084.229-2.966.621-5.46.709-7.99 6.603.949 13.678.424 20.189.417 3.866-.003 8.004-1.549 11.689-1.051 2.142.289 3.752.51 5.376.498 1.328 9.891.026 19.627-.797 29.567-.567 6.824-.137 13.715.097 20.544zm232.6-86.135c-2.443 3.209-3.423 7.654-4.62 11.413-1.509 4.749-2.85 9.559-3.658 14.481-1.619 9.85-.706 19.316.109 29.097.412 4.946.696 8.903 2.309 13.751 1.331 3.997 2.677 7.912 3.615 12-8.031.352-16.048.786-24.122.809-5.87.017-11.741.027-17.612.015-6.446-.013-12.814-1.495-19.251-1.177-6.102.302-12.021 1.24-18.162 1.253-6.59.014-13.185-.157-19.754.457-14.046 1.313-28.182.947-42.284.868-13.563-.077-26.853 1.321-40.377 1.439-13.192.114-25.932-.804-39.015.558-.213-6.533-.56-13.142.139-19.637 1.319-12.262 2.485-24.257-.127-36.528-.572-2.688-3.765-4.311-6.306-3.58-3.857 1.11-5.993-.558-9.743-.486-3.45.065-6.583 1.517-10.111 1.52-7.775.006-15.849.184-23.478-1.009-5.844-.914-8.513 6.567-3.627 9.149-2.086 11.964-1.824 23.827-1.793 36.09.014 5.065.181 9.871.581 14.735-2.875-3.952-8.447-2.326-12.727-2.006-6.994.52-14.126.784-21.211 1.299-4.109.298-8.192.442-12.311.451-3.666.009-8.543.933-12.074.105-5.73-1.343-10.538-9.672-12.335-14.746-2.366-6.685-.759-13.565-1.747-20.432-1.216-8.445-.697-16.613 1.76-24.838 2.258-7.561 3.568-15.323 9.814-20.602 2.362-1.997 4.716-4.21 7.119-6.383 2.45-1.063 5.786-1.956 7.644-2.255 3.62-.58 7.685-1.723 11.271-1.52 3.553.202 6.744 2.009 10.299 2.434 4.794.57 9.831.187 14.656.239 8.502.087 17.17 1.096 25.654.485 3.698-.267 7.328-1.124 11.023-1.386 4.536-.321 9.097.294 13.637-.042 4.151-.307 7.977-1.476 12.193-.94 4.064.516 7.831 1.15 11.965 1.13 3.908-.019 7.813-.291 11.723-.321 5.05-.039 9.916 1.912 14.846 1.633 3.11-.176 6.008-1.337 9.165-1.42 4.345-.112 8.605.929 12.906 1.343 9.061.874 18.345.059 27.436.04 18.124-.036 36.024-1.255 54.134-1.186 8.914.035 17.817-.307 26.661.843 8.769 1.141 17.393-1.204 26.128-.323 8.359.845 16.611.838 25.02.852 2.195.004 4.414.054 6.645.108a18.52 18.52 0 0 0-2.007 2.22z" fill="#000000" opacity="1" data-original="#000000" class=""></path><path
    d="M165.868 98.651c-3.256 4.134-5.868 9.062-7.671 13.992-.811 2.219-1.593 5.266-.235 7.45 1.516 2.436 4.417 2.428 6.467.771 1.181-.955.892-2.409.055-3.385.109-.422.25-1.114.358-1.484.519-1.765 1.212-3.476 1.978-5.146 1.267-2.758 2.552-5.663 4.205-8.219 1.989-3.072-2.827-6.939-5.157-3.979zM172.463 115.514c-4.844 4.323-12.413 9.33-11.584 16.776.487 4.37 6.228 4.326 6.768 0 .644-5.162 5.808-8.937 9.106-12.485 2.672-2.876-1.381-6.885-4.29-4.291zM178.423 136.912c-.195-2.304-3.473-3.694-4.718-1.277-1.076 2.09-2.105 3.907-3.553 5.782-1.328 1.723-2.159 3.264-2.589 5.184a5.96 5.96 0 0 0-.384.521c-.854 1.296-.146 2.814.952 3.636.47.352.943.53 1.521.629 1.284.219 3.028-.114 3.634-1.477 1.728-3.895 5.514-8.542 5.137-12.998zM338.904 264.164c-7.146-.723-14.323-.705-21.498-.815-7.246-.112-14.38-1.038-21.604-1.416-14.412-.755-28.654.662-43.044-1.019-14.29-1.67-29.385-.194-43.76-.071-14.484.126-28.84 2.833-43.374 3.219-1.545.041-1.553 2.393 0 2.407 14.099.133 28.15-2.109 42.15-1.929 15.349.199 31.447-1.196 46.662.827 13.34 1.774 26.762.421 40.165.78 14.834.398 29.453 1.723 44.303.223a1.104 1.104 0 0 0 0-2.206zM329.025 282.565c-3.142-2.132-7.179-1.799-10.838-2.446-4.226-.748-8.384-1.468-12.662-1.904-9.754-.991-19.671-1.042-29.467-.964-20.18.16-41.49 5.129-61.361-.235-1.406-.38-1.986 1.751-.599 2.174 18.26 5.577 37.461 2.078 56.118 1.738 10.06-.182 20.135-.412 30.193.015 4.474.189 8.953.574 13.4 1.097 3.79.448 11.209.13 14.431 1.866.889.481 1.608-.781.785-1.341zM373.559 296.179c-7.12-.719-14.303-.425-21.447-.651-6.986-.222-13.43.99-20.359 1.363-13.818.744-27.803.082-41.636.015-28.661-.141-57.326-1.045-85.988-.852-1.678.012-1.68 2.591 0 2.607 28.672.289 57.311 1.577 85.988 1.785 13.459.096 26.955.489 40.412.098 6.843-.198 13.474-1.62 20.353-1.527 7.538.101 15.167.281 22.677-.48a1.18 1.18 0 0 0 0-2.358zM395.38 391.814c-5.643-.433-11.321-.167-16.96-.691-4.691-.436-9.312-1.417-14.008-1.841-10.017-.902-20.086-.218-30.121-.203-20.656.032-41.197 1.254-61.871 1.293-10.333.021-20.667-.136-30.998-.09-10.281.047-20.478 1.785-30.74 1.43-9.72-.335-18.644.335-28.285 1.39-8.665.95-17.088 3.496-25.76 4.121-.329.024-.314.46 0 .502 8.771 1.156 17.034-.969 25.76-1.498 9.561-.579 18.677-1.209 28.285-.739 10.252.503 20.466-1.28 30.74-1.325 10.331-.045 20.665.126 30.998.114 20.673-.023 41.215-1.209 61.871-1.244 10.036-.018 20.086-.936 30.121-.402 10.469.558 20.456 1.171 30.967.234.675-.058.682-.998.001-1.051zM355.589 415.6c-10.399-.964-21.002-1.026-31.442-.913-10.814.116-21.42 1.566-32.251 1.454-20.28-.211-40.564 2.273-60.812 2.983-1.864.067-1.878 2.933 0 2.909 9.835-.13 19.564-1.028 29.429-.982 10.51.05 20.845-1.461 31.384-1.328 10.43.131 20.635-1.24 31.043-1.37 10.855-.135 21.827.458 32.65-.495 1.45-.13 1.449-2.122-.001-2.258zM352.796 445.429c-9.36 1.824-19.097.842-28.569.714-9.598-.131-19.158-1.006-28.752-1.163-8.955-.146-18.011-.477-26.957-.009-9.51.498-18.903 1.844-28.447 2.113-.58.017-.581.89 0 .902 9.56.226 18.921-.669 28.447-.91 9.764-.246 19.703.209 29.463.57 9.856.365 19.673 1.095 29.535 1.334 8.796.213 17.198.603 25.735-1.906 1.06-.314.612-1.853-.455-1.645zM145.085 409.458c-7.285-.76-14.575-.561-21.888-.463-3.591.047-7.22-.005-10.805.208-2.885.172-6.517 1.257-9.026-.814-.882-.727-2.153.492-1.276 1.277 3.778 3.382 10.446 1.753 15.105 1.848 9.281.187 18.642.615 27.89-.352a.853.853 0 0 0 0-1.704zM136.1 429.745c-7.3.453-14.313 1.295-21.529 2.192-5.422.674-11.397.49-16.364 2.898-1.552.752-.196 2.988 1.34 2.295 5.37-2.423 12.635-1.581 18.364-2.495 6.171-.983 12.308-1.676 18.482-2.722 1.222-.208.944-2.245-.293-2.168zM135.069 266.918c-10.636-1.752-21.673-.234-32.342.492-.547.037-.548.816 0 .852 10.67.725 21.709 2.244 32.342.493.91-.149.91-1.688 0-1.837zM367.141 256.363c-15.375-1.852-30.743-1.888-46.208-1.584-1.936.038-1.938 2.969 0 3.01 8.244.172 16.657-.13 24.868.59 7.422.652 14.21 1.406 21.661.348 1.46-.206.894-2.218-.321-2.364zM372.276 278.209c-5.823-.528-10.655-2.008-16.623-1.803-5.337.184-10.23-.651-15.466-.914-1.724-.085-1.681 2.512 0 2.657 2.44.213 4.707 1.177 7.129 1.47 3.056.37 6.305.14 9.374.158 5.291.03 10.663 1.525 15.899.748 1.403-.208.909-2.204-.313-2.316zM350.454 429.844c-12.284-.856-24.701-.813-36.966.304-11.302 1.028-23.053.318-34.17 2.591-2.557.525-1.475 4.44 1.081 3.917 6.048-1.237 11.945-1.067 18.061-1.234 5.829-.159 11.612-.942 17.418-1.421 11.516-.949 23.057-1.322 34.576-2.153 1.289-.091 1.293-1.913 0-2.004zM388.961 401.781c-5.626-.447-10.818-.492-16.401.273-7.074.968-14.191.262-21.293.806-5.974.457-11.834 1.355-17.847 1.334-6.47-.024-12.4-1.711-18.906-1.48-1.511.054-1.521 2.398 0 2.357 6.084-.164 11.745 1.477 17.794 1.629 6.388.16 12.608-.734 18.958-1.167 6.167-.42 12.376.249 18.532-.27 6.427-.543 12.693-1.472 19.164-1.827 1.071-.057 1.057-1.57-.001-1.655zM396.131 440.207c-6.541 3.82-16.395-3.19-22.406 2.359-1.498 1.384.738 3.605 2.235 2.233 2.589-2.372 8.962-.791 12.234-.66 3.233.132 6.781.141 9.215-2.28.844-.839-.238-2.259-1.278-1.652z"
    fill="#000000" opacity="1" data-original="#000000" class=""></path></g></svg>
